<svg width="24" height="25" viewBox="0 0 24 25" fill="none" xmlns="http://www.w3.org/2000/svg">
<path d="M5.26855 10.2499C5.26731 9.36045 5.44213 8.47951 5.78294 7.6579C6.12375 6.83628 6.62381 6.09025 7.25429 5.4628C7.88476 4.83535 8.6332 4.33889 9.45644 4.00204C10.2797 3.66519 11.1615 3.49461 12.0509 3.50013C15.7625 3.52772 18.7312 6.61275 18.7312 10.3347V10.9999C18.7312 14.3577 19.4337 16.3061 20.0524 17.371C20.1191 17.4848 20.1546 17.6142 20.1553 17.746C20.156 17.8779 20.1219 18.0076 20.0565 18.1221C19.991 18.2366 19.8966 18.3318 19.7826 18.3982C19.6686 18.4645 19.5392 18.4996 19.4073 18.4999H4.59173C4.45985 18.4996 4.33038 18.4645 4.2164 18.3981C4.10242 18.3318 4.00795 18.2366 3.94252 18.122C3.8771 18.0075 3.84303 17.8778 3.84376 17.7459C3.84449 17.614 3.87999 17.4846 3.94667 17.3709C4.56573 16.3059 5.26855 14.3575 5.26855 10.9999L5.26855 10.2499Z" stroke="#424242" stroke-width="2" stroke-linecap="round" stroke-linejoin="round"/>
<path d="M9 18.5V19.25C9 20.0456 9.31607 20.8087 9.87868 21.3713C10.4413 21.9339 11.2044 22.25 12 22.25C12.7956 22.25 13.5587 21.9339 14.1213 21.3713C14.6839 20.8087 15 20.0456 15 19.25V18.5" stroke="#424242" stroke-width="2" stroke-linecap="round" stroke-linejoin="round"/>
</svg>
