<svg width="16" height="16" viewBox="0 0 16 16" fill="none" xmlns="http://www.w3.org/2000/svg">
<path d="M9.49963 12.9991V9.99905C9.49963 9.86644 9.44696 9.73926 9.35319 9.64549C9.25942 9.55172 9.13224 9.49905 8.99963 9.49905H6.99963C6.86703 9.49905 6.73985 9.55172 6.64608 9.64549C6.55231 9.73926 6.49963 9.86644 6.49963 9.99905V12.9991C6.49963 13.1317 6.44696 13.2589 6.35321 13.3526C6.25945 13.4464 6.13229 13.4991 5.9997 13.4991L3.00006 13.4995C2.9344 13.4995 2.86937 13.4866 2.8087 13.4615C2.74803 13.4363 2.6929 13.3995 2.64647 13.3531C2.60003 13.3066 2.5632 13.2515 2.53807 13.1909C2.51293 13.1302 2.5 13.0652 2.5 12.9995V7.22073C2.5 7.15107 2.51456 7.08218 2.54273 7.01847C2.57091 6.95477 2.61209 6.89765 2.66363 6.85079L7.66329 2.30486C7.75532 2.22118 7.87525 2.17481 7.99964 2.1748C8.12403 2.1748 8.24396 2.22116 8.336 2.30484L13.3363 6.85078C13.3879 6.89765 13.4291 6.95477 13.4573 7.01848C13.4854 7.08219 13.5 7.15108 13.5 7.22075V12.9995C13.5 13.0652 13.4871 13.1302 13.4619 13.1909C13.4368 13.2515 13.4 13.3067 13.3535 13.3531C13.3071 13.3995 13.252 13.4363 13.1913 13.4615C13.1306 13.4866 13.0656 13.4995 12.9999 13.4995L9.99957 13.4991C9.86697 13.4991 9.73981 13.4464 9.64606 13.3526C9.5523 13.2589 9.49963 13.1317 9.49963 12.9991V12.9991Z" stroke="#FBC300" stroke-width="1.5" stroke-linecap="round" stroke-linejoin="round"/>
</svg>
