<svg width="48" height="48" viewBox="0 0 48 48" fill="none" xmlns="http://www.w3.org/2000/svg">
<path d="M37.4453 12.8906L31.6094 6.98438C30.9766 6.35156 30.0625 6 29.2188 6H14.875C12.9766 6 11.5 7.54688 11.5 9.375V38.625C11.5 40.5234 12.9766 42 14.875 42H35.125C36.9531 42 38.5 40.5234 38.5 38.625V15.2812C38.5 14.4375 38.0781 13.5234 37.4453 12.8906ZM35.8984 14.5078C36.0391 14.6484 36.1094 14.8594 36.1797 15H29.5V8.32031C29.6406 8.39062 29.8516 8.46094 29.9922 8.60156L35.8984 14.5078ZM35.125 39.75H14.875C14.2422 39.75 13.75 39.2578 13.75 38.625V9.375C13.75 8.8125 14.2422 8.25 14.875 8.25H27.25V15.5625C27.25 16.5469 27.9531 17.25 28.9375 17.25H36.25V38.625C36.25 39.2578 35.6875 39.75 35.125 39.75ZM31.75 22.5938C31.75 22.1719 31.3281 21.75 30.9062 21.75H19.0938C18.6016 21.75 18.25 22.1719 18.25 22.5938V23.1562C18.25 23.6484 18.6016 24 19.0938 24H30.9062C31.3281 24 31.75 23.6484 31.75 23.1562V22.5938ZM31.75 27.0938C31.75 26.6719 31.3281 26.25 30.9062 26.25H19.0938C18.6016 26.25 18.25 26.6719 18.25 27.0938V27.6562C18.25 28.1484 18.6016 28.5 19.0938 28.5H30.9062C31.3281 28.5 31.75 28.1484 31.75 27.6562V27.0938ZM31.75 31.5938C31.75 31.1719 31.3281 30.75 30.9062 30.75H19.0938C18.6016 30.75 18.25 31.1719 18.25 31.5938V32.1562C18.25 32.6484 18.6016 33 19.0938 33H30.9062C31.3281 33 31.75 32.6484 31.75 32.1562V31.5938Z" fill="#FBC300"/>
</svg>
