<svg width="254" height="229" viewBox="0 0 254 229" fill="none" xmlns="http://www.w3.org/2000/svg">
<path d="M129.429 142.056C167.04 142.056 197.531 111.548 197.531 73.7831C197.531 36.0177 166.905 5.50977 129.429 5.50977C91.8186 5.50977 61.3271 36.0177 61.3271 73.7831C61.3271 111.548 91.8186 142.056 129.429 142.056Z" fill="#EAEEF9"/>
<path d="M193.098 29.0303C196.14 29.0303 198.605 26.5632 198.605 23.52C198.605 20.4768 196.14 18.0098 193.098 18.0098C190.057 18.0098 187.591 20.4768 187.591 23.52C187.591 26.5632 190.057 29.0303 193.098 29.0303Z" fill="#E7EBF6"/>
<path d="M201.158 7.52619C203.235 7.52619 204.919 5.84139 204.919 3.76309C204.919 1.68479 203.235 0 201.158 0C199.08 0 197.396 1.68479 197.396 3.76309C197.396 5.84139 199.08 7.52619 201.158 7.52619Z" fill="#E7EBF6"/>
<path d="M64.9534 28.8953C67.0306 28.8953 68.7145 27.2105 68.7145 25.1322C68.7145 23.0539 67.0306 21.3691 64.9534 21.3691C62.8763 21.3691 61.1924 23.0539 61.1924 25.1322C61.1924 27.2105 62.8763 28.8953 64.9534 28.8953Z" fill="#E7EBF6"/>
<path d="M41.9848 101.469C45.8424 101.469 48.9696 98.3405 48.9696 94.4808C48.9696 90.6211 45.8424 87.4922 41.9848 87.4922C38.1272 87.4922 35 90.6211 35 94.4808C35 98.3405 38.1272 101.469 41.9848 101.469Z" fill="#E7EBF6"/>
<path d="M129.388 104.206L127.008 104.174C126.533 104.167 126.063 103.685 126.099 103.097C126.135 102.509 126.506 102.01 126.982 102.016L129.362 102.049C129.838 102.055 130.307 102.538 130.271 103.126C130.205 103.825 129.864 104.213 129.388 104.206Z" fill="#CED7E2"/>
<g filter="url(#filter0_d_149_9077)">
<path d="M118.617 41.4726L147.473 100.754C148.437 102.808 147.585 105.196 145.532 106.161L87.3226 133.667C85.2698 134.632 82.8829 133.779 81.9185 131.726L45.7479 54.9995C44.7835 52.9456 45.6357 50.5574 47.6884 49.5925L89.8165 29.7437L118.617 41.4726Z" fill="url(#paint0_linear_149_9077)"/>
</g>
<path d="M89.8164 29.7441L97.5318 46.1752C98.6516 48.4354 101.534 49.4316 103.793 48.3113L118.617 41.473" fill="#D5DDEA"/>
<g filter="url(#filter1_d_149_9077)">
<path d="M169.731 47.3803L170.566 113.314C170.563 115.583 168.774 117.379 166.506 117.376L102.131 117.42C99.8634 117.417 98.0678 115.628 98.0708 113.358L98.054 28.5255C98.057 26.2562 99.8456 24.4597 102.114 24.4627L148.679 24.4833L169.731 47.3803Z" fill="url(#paint1_linear_149_9077)"/>
</g>
<path d="M148.679 24.4824L148.655 42.6365C148.704 45.1586 150.887 47.2897 153.408 47.2401L169.73 47.3794" fill="#D5DDEA"/>
<g filter="url(#filter2_d_149_9077)">
<path d="M210.239 76.6244L183.319 136.883C182.423 138.916 179.919 139.806 177.917 138.798L119.595 111.889C117.563 110.993 116.673 108.487 117.569 106.455L153.09 29.476C153.986 27.4431 156.49 26.5528 158.492 27.5607L200.842 47.135L210.239 76.6244Z" fill="url(#paint2_linear_149_9077)"/>
</g>
<path d="M200.73 47.1049L193.14 63.6146C192.044 65.9529 193.21 68.7705 195.547 69.8671L210.239 76.6238" fill="#D5DDEA"/>
<path d="M35.049 180.718V193.809H32.9396L26.7713 184.892H26.6626V193.809H24.2912V180.718H26.4134L32.5753 189.641H32.6903V180.718H35.049ZM41.8134 194C40.8546 194 40.0236 193.789 39.3205 193.368C38.6174 192.946 38.0719 192.355 37.6841 191.597C37.3006 190.838 37.1088 189.952 37.1088 188.938C37.1088 187.924 37.3006 187.035 37.6841 186.272C38.0719 185.51 38.6174 184.917 39.3205 184.495C40.0236 184.074 40.8546 183.863 41.8134 183.863C42.7722 183.863 43.6032 184.074 44.3063 184.495C45.0094 184.917 45.5527 185.51 45.9363 186.272C46.324 187.035 46.5179 187.924 46.5179 188.938C46.5179 189.952 46.324 190.838 45.9363 191.597C45.5527 192.355 45.0094 192.946 44.3063 193.368C43.6032 193.789 42.7722 194 41.8134 194ZM41.8262 192.147C42.3461 192.147 42.7807 192.004 43.1301 191.718C43.4796 191.429 43.7395 191.041 43.91 190.555C44.0847 190.069 44.1721 189.528 44.1721 188.931C44.1721 188.331 44.0847 187.787 43.91 187.301C43.7395 186.811 43.4796 186.422 43.1301 186.132C42.7807 185.842 42.3461 185.697 41.8262 185.697C41.2935 185.697 40.8503 185.842 40.4966 186.132C40.1472 186.422 39.8851 186.811 39.7104 187.301C39.54 187.787 39.4547 188.331 39.4547 188.931C39.4547 189.528 39.54 190.069 39.7104 190.555C39.8851 191.041 40.1472 191.429 40.4966 191.718C40.8503 192.004 41.2935 192.147 41.8262 192.147ZM59.2045 189.679V183.99H61.5185V193.809H59.2749V192.064H59.1726C58.951 192.613 58.5866 193.063 58.0795 193.412C57.5767 193.762 56.9567 193.936 56.2195 193.936C55.576 193.936 55.0071 193.794 54.5128 193.508C54.0227 193.218 53.6392 192.799 53.3622 192.249C53.0852 191.695 52.9467 191.026 52.9467 190.242V183.99H55.2607V189.884C55.2607 190.506 55.4311 191 55.772 191.367C56.1129 191.733 56.5604 191.917 57.1143 191.917C57.4553 191.917 57.7855 191.833 58.1051 191.667C58.4247 191.501 58.6868 191.254 58.8913 190.926C59.1001 190.593 59.2045 190.178 59.2045 189.679ZM71.6578 186.586L69.5485 186.816C69.4888 186.603 69.3844 186.402 69.2353 186.215C69.0904 186.027 68.8944 185.876 68.6472 185.761C68.4 185.646 68.0975 185.588 67.7395 185.588C67.258 185.588 66.8532 185.693 66.525 185.902C66.2012 186.11 66.0414 186.381 66.0456 186.713C66.0414 186.999 66.1458 187.231 66.3588 187.41C66.5762 187.589 66.9341 187.736 67.4327 187.851L69.1074 188.209C70.0364 188.409 70.7267 188.727 71.1784 189.162C71.6344 189.596 71.8645 190.165 71.8688 190.868C71.8645 191.486 71.6834 192.032 71.3255 192.505C70.9718 192.973 70.4796 193.34 69.8489 193.604C69.2182 193.868 68.4938 194 67.6756 194C66.4739 194 65.5066 193.749 64.7736 193.246C64.0407 192.739 63.6039 192.034 63.4632 191.13L65.7196 190.913C65.8219 191.356 66.0392 191.691 66.3716 191.917C66.704 192.142 67.1365 192.255 67.6692 192.255C68.2189 192.255 68.66 192.142 68.9924 191.917C69.329 191.691 69.4973 191.412 69.4973 191.079C69.4973 190.798 69.3887 190.566 69.1713 190.382C68.9583 190.199 68.6259 190.059 68.1742 189.961L66.4995 189.609C65.5577 189.413 64.861 189.083 64.4093 188.618C63.9576 188.15 63.7338 187.557 63.7381 186.841C63.7338 186.236 63.8979 185.712 64.2303 185.269C64.5669 184.821 65.0336 184.476 65.6301 184.233C66.231 183.986 66.9235 183.863 67.7076 183.863C68.8581 183.863 69.7637 184.108 70.4242 184.598C71.089 185.088 71.5002 185.75 71.6578 186.586ZM78.1234 194C77.139 194 76.2889 193.796 75.573 193.387C74.8613 192.973 74.3137 192.39 73.9302 191.635C73.5467 190.877 73.3549 189.984 73.3549 188.957C73.3549 187.947 73.5467 187.061 73.9302 186.298C74.318 185.531 74.8592 184.934 75.5538 184.508C76.2484 184.078 77.0645 183.863 78.002 183.863C78.6071 183.863 79.1781 183.961 79.715 184.157C80.2562 184.348 80.7335 184.647 81.1468 185.051C81.5645 185.456 81.8926 185.972 82.1312 186.598C82.3699 187.221 82.4892 187.962 82.4892 188.823V189.532H74.4416V187.973H80.2711C80.2669 187.529 80.171 187.135 79.9835 186.79C79.796 186.441 79.5339 186.166 79.1973 185.966C78.8649 185.765 78.4771 185.665 78.0339 185.665C77.5609 185.665 77.1454 185.78 76.7875 186.01C76.4295 186.236 76.1504 186.534 75.9501 186.905C75.7541 187.272 75.6539 187.674 75.6497 188.113V189.475C75.6497 190.046 75.7541 190.536 75.9629 190.945C76.1717 191.35 76.4636 191.661 76.8386 191.878C77.2136 192.091 77.6525 192.198 78.1554 192.198C78.492 192.198 78.7967 192.151 79.0694 192.057C79.3422 191.959 79.5787 191.816 79.7789 191.629C79.9792 191.441 80.1305 191.209 80.2328 190.932L82.3933 191.175C82.2569 191.746 81.997 192.245 81.6135 192.671C81.2342 193.093 80.7484 193.421 80.1561 193.655C79.5637 193.885 78.8862 194 78.1234 194ZM84.4467 193.809V183.99H86.6903V185.627H86.7926C86.9716 185.06 87.2784 184.623 87.7131 184.316C88.152 184.005 88.6527 183.85 89.2152 183.85C89.343 183.85 89.4858 183.856 89.6435 183.869C89.8054 183.877 89.9396 183.892 90.0462 183.914V186.042C89.9482 186.008 89.7926 185.978 89.5795 185.953C89.3707 185.923 89.1683 185.908 88.9723 185.908C88.5504 185.908 88.1712 186 87.8345 186.183C87.5021 186.362 87.2401 186.611 87.0483 186.931C86.8565 187.25 86.7607 187.619 86.7607 188.037V193.809H84.4467ZM96.0483 193.809V183.99H98.3622V193.809H96.0483ZM97.2116 182.597C96.8452 182.597 96.5298 182.475 96.2656 182.233C96.0014 181.985 95.8693 181.689 95.8693 181.344C95.8693 180.995 96.0014 180.699 96.2656 180.456C96.5298 180.208 96.8452 180.085 97.2116 180.085C97.5824 180.085 97.8977 180.208 98.1577 180.456C98.4219 180.699 98.554 180.995 98.554 181.344C98.554 181.689 98.4219 181.985 98.1577 182.233C97.8977 182.475 97.5824 182.597 97.2116 182.597ZM103.056 188.056V193.809H100.742V183.99H102.953V185.659H103.068C103.294 185.109 103.654 184.672 104.149 184.348C104.647 184.025 105.263 183.863 105.996 183.863C106.673 183.863 107.264 184.007 107.767 184.297C108.274 184.587 108.666 185.007 108.943 185.556C109.224 186.106 109.362 186.773 109.358 187.557V193.809H107.044V187.915C107.044 187.259 106.874 186.745 106.533 186.375C106.196 186.004 105.73 185.819 105.133 185.819C104.728 185.819 104.368 185.908 104.053 186.087C103.742 186.262 103.497 186.515 103.318 186.848C103.143 187.18 103.056 187.583 103.056 188.056ZM116.278 193.809V180.718H118.591V185.614H118.687C118.807 185.375 118.975 185.122 119.192 184.853C119.41 184.581 119.704 184.348 120.074 184.157C120.445 183.961 120.918 183.863 121.493 183.863C122.252 183.863 122.936 184.056 123.545 184.444C124.159 184.828 124.645 185.397 125.003 186.151C125.365 186.901 125.546 187.821 125.546 188.912C125.546 189.99 125.369 190.907 125.015 191.661C124.662 192.415 124.18 192.99 123.571 193.387C122.961 193.783 122.271 193.981 121.5 193.981C120.937 193.981 120.471 193.887 120.1 193.7C119.729 193.512 119.431 193.287 119.205 193.022C118.983 192.754 118.811 192.5 118.687 192.262H118.553V193.809H116.278ZM118.547 188.9C118.547 189.534 118.636 190.091 118.815 190.568C118.998 191.045 119.26 191.418 119.601 191.686C119.947 191.951 120.364 192.083 120.854 192.083C121.366 192.083 121.794 191.946 122.139 191.674C122.484 191.397 122.744 191.02 122.919 190.542C123.098 190.061 123.187 189.513 123.187 188.9C123.187 188.29 123.1 187.749 122.925 187.276C122.751 186.803 122.491 186.432 122.145 186.164C121.8 185.895 121.37 185.761 120.854 185.761C120.36 185.761 119.94 185.891 119.595 186.151C119.25 186.411 118.988 186.775 118.809 187.244C118.634 187.713 118.547 188.265 118.547 188.9ZM129.827 180.718V193.809H127.513V180.718H129.827ZM135.032 194.007C134.41 194.007 133.849 193.896 133.351 193.674C132.856 193.449 132.464 193.116 132.175 192.677C131.889 192.238 131.746 191.697 131.746 191.054C131.746 190.5 131.849 190.042 132.053 189.679C132.258 189.317 132.537 189.027 132.89 188.81C133.244 188.593 133.643 188.429 134.086 188.318C134.533 188.203 134.996 188.12 135.473 188.069C136.048 188.009 136.515 187.956 136.873 187.909C137.231 187.858 137.491 187.781 137.653 187.679C137.819 187.572 137.902 187.408 137.902 187.186V187.148C137.902 186.667 137.759 186.294 137.474 186.029C137.188 185.765 136.777 185.633 136.24 185.633C135.673 185.633 135.224 185.757 134.891 186.004C134.563 186.251 134.341 186.543 134.226 186.88L132.066 186.573C132.236 185.976 132.518 185.478 132.91 185.077C133.302 184.672 133.781 184.37 134.348 184.169C134.915 183.965 135.541 183.863 136.227 183.863C136.7 183.863 137.171 183.918 137.64 184.029C138.108 184.14 138.537 184.323 138.925 184.578C139.312 184.83 139.623 185.173 139.858 185.608C140.096 186.042 140.216 186.586 140.216 187.238V193.809H137.991V192.46H137.915C137.774 192.733 137.576 192.988 137.32 193.227C137.069 193.461 136.751 193.651 136.368 193.796C135.988 193.936 135.543 194.007 135.032 194.007ZM135.633 192.306C136.097 192.306 136.5 192.215 136.841 192.032C137.182 191.844 137.444 191.597 137.627 191.29C137.814 190.983 137.908 190.649 137.908 190.287V189.13C137.836 189.189 137.712 189.245 137.537 189.296C137.367 189.347 137.175 189.392 136.962 189.43C136.749 189.468 136.538 189.502 136.329 189.532C136.121 189.562 135.939 189.588 135.786 189.609C135.441 189.656 135.132 189.733 134.859 189.839C134.586 189.946 134.371 190.095 134.214 190.287C134.056 190.474 133.977 190.717 133.977 191.015C133.977 191.441 134.133 191.763 134.444 191.98C134.755 192.198 135.151 192.306 135.633 192.306ZM146.825 194C145.845 194 145.003 193.785 144.3 193.355C143.601 192.924 143.062 192.33 142.683 191.571C142.308 190.809 142.121 189.931 142.121 188.938C142.121 187.941 142.312 187.061 142.696 186.298C143.079 185.531 143.621 184.934 144.319 184.508C145.023 184.078 145.854 183.863 146.812 183.863C147.609 183.863 148.314 184.01 148.928 184.304C149.546 184.593 150.038 185.005 150.405 185.537C150.771 186.066 150.98 186.684 151.031 187.391H148.819C148.73 186.918 148.517 186.524 148.18 186.208C147.848 185.889 147.403 185.729 146.844 185.729C146.371 185.729 145.956 185.857 145.598 186.113C145.24 186.364 144.961 186.726 144.76 187.199C144.564 187.672 144.466 188.239 144.466 188.9C144.466 189.569 144.564 190.144 144.76 190.625C144.956 191.103 145.231 191.471 145.585 191.731C145.943 191.987 146.363 192.115 146.844 192.115C147.185 192.115 147.49 192.051 147.758 191.923C148.031 191.791 148.259 191.601 148.442 191.354C148.626 191.107 148.751 190.806 148.819 190.453H151.031C150.976 191.147 150.771 191.763 150.417 192.3C150.064 192.833 149.582 193.25 148.973 193.553C148.363 193.851 147.648 194 146.825 194ZM155.04 190.728L155.034 187.934H155.405L158.933 183.99H161.637L157.297 188.823H156.817L155.04 190.728ZM152.931 193.809V180.718H155.245V193.809H152.931ZM159.093 193.809L155.897 189.341L157.457 187.711L161.861 193.809H159.093ZM165.493 180.718V193.809H163.179V180.718H165.493ZM167.873 193.809V183.99H170.186V193.809H167.873ZM169.036 182.597C168.669 182.597 168.354 182.475 168.09 182.233C167.826 181.985 167.694 181.689 167.694 181.344C167.694 180.995 167.826 180.699 168.09 180.456C168.354 180.208 168.669 180.085 169.036 180.085C169.407 180.085 169.722 180.208 169.982 180.456C170.246 180.699 170.378 180.995 170.378 181.344C170.378 181.689 170.246 181.985 169.982 182.233C169.722 182.475 169.407 182.597 169.036 182.597ZM180.326 186.586L178.216 186.816C178.157 186.603 178.052 186.402 177.903 186.215C177.758 186.027 177.562 185.876 177.315 185.761C177.068 185.646 176.765 185.588 176.407 185.588C175.926 185.588 175.521 185.693 175.193 185.902C174.869 186.11 174.709 186.381 174.714 186.713C174.709 186.999 174.814 187.231 175.027 187.41C175.244 187.589 175.602 187.736 176.101 187.851L177.775 188.209C178.704 188.409 179.395 188.727 179.846 189.162C180.302 189.596 180.532 190.165 180.537 190.868C180.532 191.486 180.351 192.032 179.993 192.505C179.64 192.973 179.148 193.34 178.517 193.604C177.886 193.868 177.162 194 176.344 194C175.142 194 174.175 193.749 173.442 193.246C172.709 192.739 172.272 192.034 172.131 191.13L174.388 190.913C174.49 191.356 174.707 191.691 175.04 191.917C175.372 192.142 175.805 192.255 176.337 192.255C176.887 192.255 177.328 192.142 177.66 191.917C177.997 191.691 178.165 191.412 178.165 191.079C178.165 190.798 178.057 190.566 177.839 190.382C177.626 190.199 177.294 190.059 176.842 189.961L175.167 189.609C174.226 189.413 173.529 189.083 173.077 188.618C172.626 188.15 172.402 187.557 172.406 186.841C172.402 186.236 172.566 185.712 172.898 185.269C173.235 184.821 173.702 184.476 174.298 184.233C174.899 183.986 175.591 183.863 176.376 183.863C177.526 183.863 178.432 184.108 179.092 184.598C179.757 185.088 180.168 185.75 180.326 186.586ZM187.347 183.99V185.78H181.703V183.99H187.347ZM183.097 181.638H185.411V190.855C185.411 191.167 185.458 191.405 185.551 191.571C185.649 191.733 185.777 191.844 185.935 191.904C186.093 191.963 186.267 191.993 186.459 191.993C186.604 191.993 186.736 191.983 186.855 191.961C186.979 191.94 187.073 191.921 187.137 191.904L187.526 193.713C187.403 193.755 187.226 193.802 186.996 193.853C186.77 193.904 186.493 193.934 186.165 193.943C185.585 193.96 185.063 193.873 184.599 193.681C184.134 193.485 183.766 193.182 183.493 192.773C183.225 192.364 183.093 191.853 183.097 191.239V181.638ZM191.999 192.019L191.916 192.722C191.857 193.259 191.75 193.804 191.597 194.358C191.447 194.917 191.29 195.43 191.124 195.899C190.957 196.368 190.823 196.736 190.721 197.005H189.161C189.221 196.745 189.302 196.391 189.404 195.944C189.511 195.496 189.613 194.993 189.711 194.435C189.809 193.877 189.875 193.31 189.909 192.735L189.954 192.019H191.999ZM200.09 197.49C199.775 197.49 199.483 197.465 199.214 197.414C198.95 197.367 198.739 197.311 198.581 197.248L199.118 195.445C199.455 195.543 199.756 195.59 200.02 195.586C200.284 195.581 200.516 195.498 200.716 195.336C200.921 195.179 201.094 194.914 201.234 194.544L201.432 194.013L197.872 183.99H200.327L202.589 191.405H202.692L204.961 183.99H207.422L203.491 194.998C203.307 195.517 203.064 195.963 202.762 196.333C202.459 196.708 202.089 196.994 201.65 197.19C201.215 197.39 200.695 197.49 200.09 197.49ZM213.036 194C212.051 194 211.201 193.796 210.485 193.387C209.773 192.973 209.226 192.39 208.842 191.635C208.459 190.877 208.267 189.984 208.267 188.957C208.267 187.947 208.459 187.061 208.842 186.298C209.23 185.531 209.771 184.934 210.466 184.508C211.161 184.078 211.977 183.863 212.914 183.863C213.519 183.863 214.09 183.961 214.627 184.157C215.168 184.348 215.646 184.647 216.059 185.051C216.477 185.456 216.805 185.972 217.043 186.598C217.282 187.221 217.401 187.962 217.401 188.823V189.532H209.354V187.973H215.183C215.179 187.529 215.083 187.135 214.896 186.79C214.708 186.441 214.446 186.166 214.109 185.966C213.777 185.765 213.389 185.665 212.946 185.665C212.473 185.665 212.058 185.78 211.7 186.01C211.342 186.236 211.063 186.534 210.862 186.905C210.666 187.272 210.566 187.674 210.562 188.113V189.475C210.562 190.046 210.666 190.536 210.875 190.945C211.084 191.35 211.376 191.661 211.751 191.878C212.126 192.091 212.565 192.198 213.067 192.198C213.404 192.198 213.709 192.151 213.982 192.057C214.254 191.959 214.491 191.816 214.691 191.629C214.891 191.441 215.043 191.209 215.145 190.932L217.305 191.175C217.169 191.746 216.909 192.245 216.526 192.671C216.146 193.093 215.661 193.421 215.068 193.655C214.476 193.885 213.798 194 213.036 194ZM224.262 183.99V185.78H218.617V183.99H224.262ZM220.011 181.638H222.325V190.855C222.325 191.167 222.372 191.405 222.465 191.571C222.563 191.733 222.691 191.844 222.849 191.904C223.007 191.963 223.181 191.993 223.373 191.993C223.518 191.993 223.65 191.983 223.769 191.961C223.893 191.94 223.987 191.921 224.051 191.904L224.441 193.713C224.317 193.755 224.14 193.802 223.91 193.853C223.684 193.904 223.407 193.934 223.079 193.943C222.499 193.96 221.977 193.873 221.513 193.681C221.048 193.485 220.68 193.182 220.407 192.773C220.139 192.364 220.007 191.853 220.011 191.239V181.638ZM227.622 193.949C227.234 193.949 226.902 193.813 226.625 193.54C226.348 193.267 226.212 192.935 226.216 192.543C226.212 192.159 226.348 191.831 226.625 191.559C226.902 191.286 227.234 191.15 227.622 191.15C227.997 191.15 228.323 191.286 228.6 191.559C228.881 191.831 229.024 192.159 229.028 192.543C229.024 192.803 228.956 193.039 228.824 193.252C228.696 193.466 228.526 193.636 228.312 193.764C228.104 193.887 227.874 193.949 227.622 193.949Z" fill="black"/>
<path d="M2.15057 222.809H0.857955L4.59659 212.627H5.86932L9.60795 222.809H8.31534L5.27273 214.238H5.19318L2.15057 222.809ZM2.62784 218.831H7.83807V219.925H2.62784V218.831ZM13.9183 222.968C13.282 222.968 12.7202 222.807 12.233 222.485C11.7457 222.161 11.3646 221.703 11.0895 221.113C10.8144 220.52 10.6768 219.819 10.6768 219.01C10.6768 218.208 10.8144 217.512 11.0895 216.922C11.3646 216.332 11.7474 215.877 12.2379 215.555C12.7285 215.234 13.2952 215.073 13.9382 215.073C14.4354 215.073 14.8281 215.156 15.1165 215.321C15.4081 215.484 15.6302 215.669 15.7827 215.878C15.9384 216.084 16.0594 216.253 16.1456 216.385H16.245V212.627H17.4183V222.809H16.2848V221.635H16.1456C16.0594 221.775 15.9368 221.95 15.7777 222.162C15.6186 222.371 15.3916 222.558 15.0966 222.724C14.8016 222.886 14.4089 222.968 13.9183 222.968ZM14.0774 221.914C14.5481 221.914 14.9458 221.791 15.2706 221.546C15.5954 221.297 15.8423 220.954 16.0114 220.517C16.1804 220.076 16.2649 219.567 16.2649 218.99C16.2649 218.42 16.1821 217.922 16.0163 217.494C15.8506 217.063 15.6054 216.728 15.2805 216.49C14.9557 216.248 14.5547 216.127 14.0774 216.127C13.5803 216.127 13.166 216.254 12.8345 216.51C12.5064 216.761 12.2595 217.105 12.0938 217.539C11.9313 217.97 11.8501 218.453 11.8501 218.99C11.8501 219.534 11.933 220.028 12.0987 220.472C12.2678 220.913 12.5163 221.264 12.8445 221.526C13.1759 221.784 13.5869 221.914 14.0774 221.914ZM22.6136 222.968C21.9773 222.968 21.4155 222.807 20.9283 222.485C20.4411 222.161 20.0599 221.703 19.7848 221.113C19.5097 220.52 19.3722 219.819 19.3722 219.01C19.3722 218.208 19.5097 217.512 19.7848 216.922C20.0599 216.332 20.4427 215.877 20.9332 215.555C21.4238 215.234 21.9905 215.073 22.6335 215.073C23.1307 215.073 23.5234 215.156 23.8118 215.321C24.1035 215.484 24.3255 215.669 24.478 215.878C24.6338 216.084 24.7547 216.253 24.8409 216.385H24.9403V212.627H26.1136V222.809H24.9801V221.635H24.8409C24.7547 221.775 24.6321 221.95 24.473 222.162C24.3139 222.371 24.0869 222.558 23.7919 222.724C23.4969 222.886 23.1042 222.968 22.6136 222.968ZM22.7727 221.914C23.2434 221.914 23.6411 221.791 23.9659 221.546C24.2907 221.297 24.5376 220.954 24.7067 220.517C24.8757 220.076 24.9602 219.567 24.9602 218.99C24.9602 218.42 24.8774 217.922 24.7116 217.494C24.5459 217.063 24.3007 216.728 23.9759 216.49C23.651 216.248 23.25 216.127 22.7727 216.127C22.2756 216.127 21.8613 216.254 21.5298 216.51C21.2017 216.761 20.9548 217.105 20.7891 217.539C20.6267 217.97 20.5455 218.453 20.5455 218.99C20.5455 219.534 20.6283 220.028 20.794 220.472C20.9631 220.913 21.2116 221.264 21.5398 221.526C21.8712 221.784 22.2822 221.914 22.7727 221.914ZM33.5362 218.215V222.809H32.3629V215.172H33.4964V216.365H33.5959C33.7749 215.978 34.0466 215.666 34.4112 215.431C34.7758 215.192 35.2464 215.073 35.8232 215.073C36.3402 215.073 36.7926 215.179 37.1804 215.391C37.5682 215.6 37.8698 215.918 38.0852 216.346C38.3007 216.77 38.4084 217.307 38.4084 217.956V222.809H37.2351V218.036C37.2351 217.436 37.0793 216.969 36.7678 216.634C36.4562 216.296 36.0286 216.127 35.4851 216.127C35.1106 216.127 34.7758 216.208 34.4808 216.37C34.1892 216.533 33.9588 216.77 33.7898 217.081C33.6207 217.393 33.5362 217.771 33.5362 218.215ZM43.7541 222.968C43.0183 222.968 42.3836 222.805 41.85 222.48C41.3197 222.152 40.9103 221.695 40.622 221.108C40.3369 220.518 40.1944 219.832 40.1944 219.05C40.1944 218.268 40.3369 217.578 40.622 216.982C40.9103 216.382 41.3114 215.915 41.8251 215.58C42.3422 215.242 42.9454 215.073 43.6348 215.073C44.0325 215.073 44.4252 215.139 44.813 215.272C45.2008 215.404 45.5538 215.62 45.872 215.918C46.1902 216.213 46.4437 216.604 46.6326 217.091C46.8216 217.578 46.916 218.178 46.916 218.891V219.388H41.0297V218.374H45.7228C45.7228 217.943 45.6367 217.559 45.4643 217.221C45.2953 216.882 45.0533 216.616 44.7385 216.42C44.4269 216.225 44.059 216.127 43.6348 216.127C43.1674 216.127 42.7631 216.243 42.4217 216.475C42.0836 216.703 41.8234 217.002 41.6412 217.37C41.4589 217.738 41.3677 218.132 41.3677 218.553V219.229C41.3677 219.806 41.4672 220.295 41.666 220.696C41.8682 221.093 42.1483 221.397 42.5062 221.605C42.8642 221.811 43.2801 221.914 43.7541 221.914C44.0623 221.914 44.3407 221.871 44.5893 221.784C44.8412 221.695 45.0583 221.562 45.2406 221.387C45.4229 221.208 45.5637 220.986 45.6632 220.721L46.7967 221.039C46.6774 221.423 46.4769 221.761 46.1951 222.053C45.9134 222.341 45.5654 222.567 45.1511 222.729C44.7368 222.888 44.2711 222.968 43.7541 222.968ZM50.4309 222.809L48.1042 215.172H49.3372L50.9877 221.019H51.0673L52.698 215.172H53.9508L55.5616 220.999H55.6412L57.2917 215.172H58.5247L56.198 222.809H55.0446L53.3741 216.942H53.2548L51.5843 222.809H50.4309ZM68.8258 219.686V215.172H69.9991V222.809H68.8258V221.516H68.7463C68.5673 221.904 68.2889 222.234 67.911 222.505C67.5332 222.774 67.0559 222.908 66.4792 222.908C66.002 222.908 65.5777 222.804 65.2065 222.595C64.8353 222.383 64.5436 222.065 64.3315 221.64C64.1194 221.213 64.0133 220.674 64.0133 220.025V215.172H65.1866V219.945C65.1866 220.502 65.3424 220.946 65.6539 221.277C65.9688 221.609 66.3699 221.775 66.8571 221.775C67.1487 221.775 67.4454 221.7 67.747 221.551C68.0519 221.402 68.3071 221.173 68.5126 220.865C68.7214 220.556 68.8258 220.164 68.8258 219.686ZM77.5572 216.882L76.5032 217.181C76.4369 217.005 76.3391 216.834 76.2099 216.669C76.0839 216.5 75.9116 216.36 75.6928 216.251C75.4741 216.142 75.194 216.087 74.8526 216.087C74.3853 216.087 73.9959 216.195 73.6843 216.41C73.3761 216.622 73.2219 216.892 73.2219 217.221C73.2219 217.512 73.328 217.743 73.5401 217.912C73.7522 218.081 74.0837 218.221 74.5344 218.334L75.668 218.613C76.3507 218.778 76.8595 219.032 77.1942 219.373C77.529 219.711 77.6964 220.147 77.6964 220.681C77.6964 221.118 77.5704 221.509 77.3185 221.854C77.07 222.199 76.7219 222.471 76.2745 222.669C75.8271 222.868 75.3067 222.968 74.7134 222.968C73.9345 222.968 73.2899 222.799 72.7795 222.461C72.2691 222.123 71.9459 221.629 71.81 220.979L72.9237 220.701C73.0297 221.112 73.2302 221.42 73.5252 221.625C73.8235 221.831 74.2129 221.934 74.6935 221.934C75.2404 221.934 75.6746 221.818 75.9961 221.586C76.3209 221.35 76.4833 221.069 76.4833 220.74C76.4833 220.475 76.3905 220.253 76.2049 220.074C76.0193 219.892 75.7343 219.756 75.3498 219.667L74.0771 219.368C73.3777 219.203 72.864 218.946 72.5359 218.598C72.2111 218.246 72.0487 217.807 72.0487 217.28C72.0487 216.849 72.1696 216.468 72.4116 216.137C72.6568 215.805 72.9899 215.545 73.4109 215.356C73.8351 215.167 74.3157 215.073 74.8526 215.073C75.6083 215.073 76.2016 215.239 76.6325 215.57C77.0666 215.901 77.3749 216.339 77.5572 216.882ZM82.6642 222.968C81.9284 222.968 81.2937 222.805 80.7601 222.48C80.2298 222.152 79.8205 221.695 79.5321 221.108C79.2471 220.518 79.1046 219.832 79.1046 219.05C79.1046 218.268 79.2471 217.578 79.5321 216.982C79.8205 216.382 80.2215 215.915 80.7353 215.58C81.2523 215.242 81.8555 215.073 82.5449 215.073C82.9426 215.073 83.3354 215.139 83.7232 215.272C84.111 215.404 84.464 215.62 84.7821 215.918C85.1003 216.213 85.3539 216.604 85.5428 217.091C85.7317 217.578 85.8262 218.178 85.8262 218.891V219.388H79.9398V218.374H84.633C84.633 217.943 84.5468 217.559 84.3745 217.221C84.2054 216.882 83.9635 216.616 83.6486 216.42C83.3371 216.225 82.9692 216.127 82.5449 216.127C82.0776 216.127 81.6732 216.243 81.3319 216.475C80.9938 216.703 80.7336 217.002 80.5513 217.37C80.369 217.738 80.2779 218.132 80.2779 218.553V219.229C80.2779 219.806 80.3773 220.295 80.5762 220.696C80.7783 221.093 81.0584 221.397 81.4164 221.605C81.7743 221.811 82.1903 221.914 82.6642 221.914C82.9725 221.914 83.2509 221.871 83.4995 221.784C83.7514 221.695 83.9685 221.562 84.1507 221.387C84.333 221.208 84.4739 220.986 84.5733 220.721L85.7069 221.039C85.5875 221.423 85.387 221.761 85.1053 222.053C84.8236 222.341 84.4756 222.567 84.0613 222.729C83.647 222.888 83.1813 222.968 82.6642 222.968ZM87.611 222.809V215.172H88.7445V216.326H88.824C88.9632 215.948 89.2151 215.641 89.5797 215.406C89.9443 215.171 90.3553 215.053 90.8127 215.053C90.8989 215.053 91.0066 215.055 91.1358 215.058C91.2651 215.061 91.3629 215.066 91.4292 215.073V216.266C91.3894 216.256 91.2982 216.241 91.1557 216.221C91.0165 216.198 90.869 216.186 90.7132 216.186C90.342 216.186 90.0106 216.264 89.7189 216.42C89.4306 216.573 89.2019 216.785 89.0328 217.056C88.8671 217.325 88.7843 217.632 88.7843 217.976V222.809H87.611ZM100.078 215.172V216.167H96.1211V215.172H100.078ZM97.2745 213.343H98.4478V220.621C98.4478 220.953 98.4959 221.201 98.592 221.367C98.6914 221.529 98.8174 221.639 98.9698 221.695C99.1256 221.748 99.2897 221.775 99.462 221.775C99.5913 221.775 99.6973 221.768 99.7802 221.755C99.863 221.738 99.9293 221.725 99.979 221.715L100.218 222.769C100.138 222.799 100.027 222.828 99.8846 222.858C99.7421 222.891 99.5614 222.908 99.3427 222.908C99.0112 222.908 98.6864 222.837 98.3683 222.694C98.0534 222.552 97.7915 222.335 97.5827 222.043C97.3772 221.751 97.2745 221.383 97.2745 220.939V213.343ZM104.864 222.968C104.174 222.968 103.569 222.804 103.049 222.475C102.532 222.147 102.128 221.688 101.836 221.098C101.548 220.508 101.403 219.819 101.403 219.03C101.403 218.235 101.548 217.54 101.836 216.947C102.128 216.354 102.532 215.893 103.049 215.565C103.569 215.237 104.174 215.073 104.864 215.073C105.553 215.073 106.156 215.237 106.673 215.565C107.194 215.893 107.598 216.354 107.886 216.947C108.178 217.54 108.324 218.235 108.324 219.03C108.324 219.819 108.178 220.508 107.886 221.098C107.598 221.688 107.194 222.147 106.673 222.475C106.156 222.804 105.553 222.968 104.864 222.968ZM104.864 221.914C105.387 221.914 105.818 221.779 106.156 221.511C106.494 221.243 106.745 220.89 106.907 220.452C107.069 220.015 107.151 219.541 107.151 219.03C107.151 218.52 107.069 218.044 106.907 217.603C106.745 217.163 106.494 216.806 106.156 216.534C105.818 216.263 105.387 216.127 104.864 216.127C104.34 216.127 103.909 216.263 103.571 216.534C103.233 216.806 102.983 217.163 102.82 217.603C102.658 218.044 102.577 218.52 102.577 219.03C102.577 219.541 102.658 220.015 102.82 220.452C102.983 220.89 103.233 221.243 103.571 221.511C103.909 221.779 104.34 221.914 104.864 221.914ZM114.211 222.809V212.627H115.385V216.385H115.484C115.57 216.253 115.69 216.084 115.842 215.878C115.998 215.669 116.22 215.484 116.508 215.321C116.8 215.156 117.194 215.073 117.692 215.073C118.335 215.073 118.901 215.234 119.392 215.555C119.882 215.877 120.265 216.332 120.54 216.922C120.815 217.512 120.953 218.208 120.953 219.01C120.953 219.819 120.815 220.52 120.54 221.113C120.265 221.703 119.884 222.161 119.397 222.485C118.91 222.807 118.348 222.968 117.711 222.968C117.221 222.968 116.828 222.886 116.533 222.724C116.238 222.558 116.011 222.371 115.852 222.162C115.693 221.95 115.57 221.775 115.484 221.635H115.345V222.809H114.211ZM115.365 218.99C115.365 219.567 115.449 220.076 115.618 220.517C115.787 220.954 116.034 221.297 116.359 221.546C116.684 221.791 117.082 221.914 117.552 221.914C118.043 221.914 118.452 221.784 118.78 221.526C119.112 221.264 119.36 220.913 119.526 220.472C119.695 220.028 119.78 219.534 119.78 218.99C119.78 218.453 119.697 217.97 119.531 217.539C119.369 217.105 119.122 216.761 118.79 216.51C118.462 216.254 118.05 216.127 117.552 216.127C117.075 216.127 116.674 216.248 116.349 216.49C116.024 216.728 115.779 217.063 115.613 217.494C115.448 217.922 115.365 218.42 115.365 218.99ZM124.995 222.988C124.511 222.988 124.072 222.896 123.677 222.714C123.283 222.529 122.97 222.262 122.738 221.914C122.506 221.562 122.39 221.138 122.39 220.641C122.39 220.203 122.476 219.849 122.648 219.577C122.821 219.302 123.051 219.087 123.339 218.931C123.628 218.775 123.946 218.659 124.294 218.583C124.645 218.503 124.998 218.44 125.353 218.394C125.817 218.334 126.193 218.289 126.481 218.26C126.773 218.226 126.985 218.172 127.118 218.096C127.254 218.019 127.322 217.887 127.322 217.698V217.658C127.322 217.167 127.187 216.786 126.919 216.515C126.654 216.243 126.251 216.107 125.711 216.107C125.151 216.107 124.711 216.23 124.393 216.475C124.075 216.72 123.851 216.982 123.722 217.26L122.608 216.863C122.807 216.399 123.073 216.037 123.404 215.779C123.739 215.517 124.103 215.335 124.498 215.232C124.895 215.126 125.287 215.073 125.671 215.073C125.916 215.073 126.198 215.103 126.516 215.162C126.838 215.219 127.148 215.336 127.446 215.515C127.747 215.694 127.998 215.964 128.197 216.326C128.395 216.687 128.495 217.171 128.495 217.777V222.809H127.322V221.775H127.262C127.182 221.94 127.05 222.118 126.864 222.306C126.679 222.495 126.432 222.656 126.123 222.789C125.815 222.921 125.439 222.988 124.995 222.988ZM125.174 221.934C125.638 221.934 126.029 221.842 126.347 221.66C126.669 221.478 126.911 221.243 127.073 220.954C127.239 220.666 127.322 220.363 127.322 220.044V218.971C127.272 219.03 127.162 219.085 126.993 219.135C126.828 219.181 126.635 219.222 126.417 219.259C126.201 219.292 125.991 219.322 125.785 219.348C125.583 219.372 125.419 219.391 125.293 219.408C124.988 219.448 124.703 219.512 124.438 219.602C124.176 219.688 123.964 219.819 123.802 219.995C123.643 220.167 123.563 220.402 123.563 220.701C123.563 221.108 123.714 221.417 124.015 221.625C124.32 221.831 124.706 221.934 125.174 221.934ZM133.739 222.968C133.023 222.968 132.406 222.799 131.889 222.461C131.372 222.123 130.974 221.657 130.696 221.064C130.418 220.47 130.278 219.792 130.278 219.03C130.278 218.255 130.421 217.57 130.706 216.977C130.994 216.38 131.395 215.915 131.909 215.58C132.426 215.242 133.029 215.073 133.719 215.073C134.256 215.073 134.74 215.172 135.17 215.371C135.601 215.57 135.954 215.848 136.229 216.206C136.504 216.564 136.675 216.982 136.741 217.459H135.568C135.479 217.111 135.28 216.803 134.972 216.534C134.667 216.263 134.256 216.127 133.739 216.127C133.281 216.127 132.88 216.246 132.536 216.485C132.194 216.72 131.927 217.053 131.735 217.484C131.546 217.912 131.452 218.414 131.452 218.99C131.452 219.58 131.545 220.094 131.73 220.532C131.919 220.969 132.184 221.309 132.526 221.551C132.87 221.793 133.275 221.914 133.739 221.914C134.044 221.914 134.32 221.861 134.569 221.755C134.817 221.649 135.028 221.496 135.2 221.297C135.373 221.098 135.495 220.86 135.568 220.581H136.741C136.675 221.032 136.511 221.438 136.249 221.799C135.991 222.157 135.648 222.442 135.22 222.654C134.796 222.863 134.302 222.968 133.739 222.968ZM139.55 220.025L139.531 218.573H139.769L143.11 215.172H144.562L141.002 218.772H140.903L139.55 220.025ZM138.457 222.809V212.627H139.63V222.809H138.457ZM143.309 222.809L140.326 219.03L141.161 218.215L144.8 222.809H143.309ZM147.245 212.627V222.809H146.072V212.627H147.245ZM149.394 222.809V215.172H150.567V222.809H149.394ZM149.991 213.9C149.762 213.9 149.565 213.822 149.399 213.666C149.237 213.51 149.156 213.323 149.156 213.104C149.156 212.885 149.237 212.698 149.399 212.542C149.565 212.386 149.762 212.309 149.991 212.309C150.219 212.309 150.415 212.386 150.577 212.542C150.743 212.698 150.826 212.885 150.826 213.104C150.826 213.323 150.743 213.51 150.577 213.666C150.415 213.822 150.219 213.9 149.991 213.9ZM158.126 216.882L157.072 217.181C157.005 217.005 156.907 216.834 156.778 216.669C156.652 216.5 156.48 216.36 156.261 216.251C156.042 216.142 155.762 216.087 155.421 216.087C154.954 216.087 154.564 216.195 154.253 216.41C153.944 216.622 153.79 216.892 153.79 217.221C153.79 217.512 153.896 217.743 154.108 217.912C154.321 218.081 154.652 218.221 155.103 218.334L156.236 218.613C156.919 218.778 157.428 219.032 157.763 219.373C158.097 219.711 158.265 220.147 158.265 220.681C158.265 221.118 158.139 221.509 157.887 221.854C157.638 222.199 157.29 222.471 156.843 222.669C156.395 222.868 155.875 222.968 155.282 222.968C154.503 222.968 153.858 222.799 153.348 222.461C152.837 222.123 152.514 221.629 152.378 220.979L153.492 220.701C153.598 221.112 153.799 221.42 154.094 221.625C154.392 221.831 154.781 221.934 155.262 221.934C155.809 221.934 156.243 221.818 156.564 221.586C156.889 221.35 157.052 221.069 157.052 220.74C157.052 220.475 156.959 220.253 156.773 220.074C156.588 219.892 156.303 219.756 155.918 219.667L154.645 219.368C153.946 219.203 153.432 218.946 153.104 218.598C152.779 218.246 152.617 217.807 152.617 217.28C152.617 216.849 152.738 216.468 152.98 216.137C153.225 215.805 153.558 215.545 153.979 215.356C154.403 215.167 154.884 215.073 155.421 215.073C156.177 215.073 156.77 215.239 157.201 215.57C157.635 215.901 157.943 216.339 158.126 216.882ZM163.352 215.172V216.167H159.395V215.172H163.352ZM160.548 213.343H161.721V220.621C161.721 220.953 161.769 221.201 161.865 221.367C161.965 221.529 162.091 221.639 162.243 221.695C162.399 221.748 162.563 221.775 162.735 221.775C162.865 221.775 162.971 221.768 163.054 221.755C163.136 221.738 163.203 221.725 163.252 221.715L163.491 222.769C163.412 222.799 163.301 222.828 163.158 222.858C163.016 222.891 162.835 222.908 162.616 222.908C162.285 222.908 161.96 222.837 161.642 222.694C161.327 222.552 161.065 222.335 160.856 222.043C160.651 221.751 160.548 221.383 160.548 220.939V213.343ZM169.213 222.809V212.627H170.387V216.385H170.486C170.572 216.253 170.692 216.084 170.844 215.878C171 215.669 171.222 215.484 171.51 215.321C171.802 215.156 172.196 215.073 172.694 215.073C173.337 215.073 173.903 215.234 174.394 215.555C174.884 215.877 175.267 216.332 175.542 216.922C175.817 217.512 175.955 218.208 175.955 219.01C175.955 219.819 175.817 220.52 175.542 221.113C175.267 221.703 174.886 222.161 174.399 222.485C173.912 222.807 173.35 222.968 172.713 222.968C172.223 222.968 171.83 222.886 171.535 222.724C171.24 222.558 171.013 222.371 170.854 222.162C170.695 221.95 170.572 221.775 170.486 221.635H170.347V222.809H169.213ZM170.367 218.99C170.367 219.567 170.451 220.076 170.62 220.517C170.789 220.954 171.036 221.297 171.361 221.546C171.686 221.791 172.084 221.914 172.554 221.914C173.045 221.914 173.454 221.784 173.782 221.526C174.114 221.264 174.362 220.913 174.528 220.472C174.697 220.028 174.782 219.534 174.782 218.99C174.782 218.453 174.699 217.97 174.533 217.539C174.371 217.105 174.124 216.761 173.792 216.51C173.464 216.254 173.051 216.127 172.554 216.127C172.077 216.127 171.676 216.248 171.351 216.49C171.026 216.728 170.781 217.063 170.615 217.494C170.45 217.922 170.367 218.42 170.367 218.99ZM178.232 225.672C178.033 225.672 177.856 225.656 177.7 225.623C177.544 225.593 177.436 225.563 177.377 225.533L177.675 224.499C177.96 224.572 178.212 224.598 178.431 224.578C178.65 224.559 178.843 224.461 179.012 224.285C179.185 224.113 179.342 223.833 179.485 223.445L179.703 222.848L176.88 215.172H178.152L180.26 221.257H180.34L182.448 215.172H183.721L180.479 223.922C180.333 224.317 180.153 224.643 179.937 224.902C179.722 225.163 179.471 225.357 179.186 225.483C178.905 225.609 178.587 225.672 178.232 225.672ZM194.616 216.882L193.562 217.181C193.496 217.005 193.398 216.834 193.268 216.669C193.143 216.5 192.97 216.36 192.751 216.251C192.533 216.142 192.253 216.087 191.911 216.087C191.444 216.087 191.054 216.195 190.743 216.41C190.435 216.622 190.281 216.892 190.281 217.221C190.281 217.512 190.387 217.743 190.599 217.912C190.811 218.081 191.142 218.221 191.593 218.334L192.727 218.613C193.409 218.778 193.918 219.032 194.253 219.373C194.588 219.711 194.755 220.147 194.755 220.681C194.755 221.118 194.629 221.509 194.377 221.854C194.129 222.199 193.781 222.471 193.333 222.669C192.886 222.868 192.365 222.968 191.772 222.968C190.993 222.968 190.348 222.799 189.838 222.461C189.328 222.123 189.004 221.629 188.869 220.979L189.982 220.701C190.088 221.112 190.289 221.42 190.584 221.625C190.882 221.831 191.272 221.934 191.752 221.934C192.299 221.934 192.733 221.818 193.055 221.586C193.379 221.35 193.542 221.069 193.542 220.74C193.542 220.475 193.449 220.253 193.263 220.074C193.078 219.892 192.793 219.756 192.408 219.667L191.136 219.368C190.436 219.203 189.923 218.946 189.594 218.598C189.27 218.246 189.107 217.807 189.107 217.28C189.107 216.849 189.228 216.468 189.47 216.137C189.715 215.805 190.049 215.545 190.469 215.356C190.894 215.167 191.374 215.073 191.911 215.073C192.667 215.073 193.26 215.239 193.691 215.57C194.125 215.901 194.433 216.339 194.616 216.882ZM199.723 222.968C198.987 222.968 198.352 222.805 197.819 222.48C197.288 222.152 196.879 221.695 196.591 221.108C196.306 220.518 196.163 219.832 196.163 219.05C196.163 218.268 196.306 217.578 196.591 216.982C196.879 216.382 197.28 215.915 197.794 215.58C198.311 215.242 198.914 215.073 199.604 215.073C200.001 215.073 200.394 215.139 200.782 215.272C201.17 215.404 201.523 215.62 201.841 215.918C202.159 216.213 202.412 216.604 202.601 217.091C202.79 217.578 202.885 218.178 202.885 218.891V219.388H196.998V218.374H201.692C201.692 217.943 201.605 217.559 201.433 217.221C201.264 216.882 201.022 216.616 200.707 216.42C200.396 216.225 200.028 216.127 199.604 216.127C199.136 216.127 198.732 216.243 198.39 216.475C198.052 216.703 197.792 217.002 197.61 217.37C197.428 217.738 197.336 218.132 197.336 218.553V219.229C197.336 219.806 197.436 220.295 197.635 220.696C197.837 221.093 198.117 221.397 198.475 221.605C198.833 221.811 199.249 221.914 199.723 221.914C200.031 221.914 200.309 221.871 200.558 221.784C200.81 221.695 201.027 221.562 201.209 221.387C201.392 221.208 201.532 220.986 201.632 220.721L202.765 221.039C202.646 221.423 202.446 221.761 202.164 222.053C201.882 222.341 201.534 222.567 201.12 222.729C200.706 222.888 200.24 222.968 199.723 222.968ZM206.917 222.988C206.433 222.988 205.994 222.896 205.599 222.714C205.205 222.529 204.892 222.262 204.66 221.914C204.428 221.562 204.312 221.138 204.312 220.641C204.312 220.203 204.398 219.849 204.57 219.577C204.742 219.302 204.973 219.087 205.261 218.931C205.55 218.775 205.868 218.659 206.216 218.583C206.567 218.503 206.92 218.44 207.275 218.394C207.739 218.334 208.115 218.289 208.403 218.26C208.695 218.226 208.907 218.172 209.04 218.096C209.175 218.019 209.243 217.887 209.243 217.698V217.658C209.243 217.167 209.109 216.786 208.841 216.515C208.576 216.243 208.173 216.107 207.633 216.107C207.073 216.107 206.633 216.23 206.315 216.475C205.997 216.72 205.773 216.982 205.644 217.26L204.53 216.863C204.729 216.399 204.994 216.037 205.326 215.779C205.661 215.517 206.025 215.335 206.42 215.232C206.817 215.126 207.208 215.073 207.593 215.073C207.838 215.073 208.12 215.103 208.438 215.162C208.76 215.219 209.069 215.336 209.368 215.515C209.669 215.694 209.92 215.964 210.118 216.326C210.317 216.687 210.417 217.171 210.417 217.777V222.809H209.243V221.775H209.184C209.104 221.94 208.972 222.118 208.786 222.306C208.6 222.495 208.354 222.656 208.045 222.789C207.737 222.921 207.361 222.988 206.917 222.988ZM207.096 221.934C207.56 221.934 207.951 221.842 208.269 221.66C208.59 221.478 208.832 221.243 208.995 220.954C209.161 220.666 209.243 220.363 209.243 220.044V218.971C209.194 219.03 209.084 219.085 208.915 219.135C208.75 219.181 208.557 219.222 208.339 219.259C208.123 219.292 207.913 219.322 207.707 219.348C207.505 219.372 207.341 219.391 207.215 219.408C206.91 219.448 206.625 219.512 206.36 219.602C206.098 219.688 205.886 219.819 205.724 219.995C205.564 220.167 205.485 220.402 205.485 220.701C205.485 221.108 205.636 221.417 205.937 221.625C206.242 221.831 206.628 221.934 207.096 221.934ZM212.558 222.809V215.172H213.692V216.326H213.771C213.911 215.948 214.162 215.641 214.527 215.406C214.892 215.171 215.303 215.053 215.76 215.053C215.846 215.053 215.954 215.055 216.083 215.058C216.212 215.061 216.31 215.066 216.376 215.073V216.266C216.337 216.256 216.246 216.241 216.103 216.221C215.964 216.198 215.816 216.186 215.661 216.186C215.289 216.186 214.958 216.264 214.666 216.42C214.378 216.573 214.149 216.785 213.98 217.056C213.814 217.325 213.732 217.632 213.732 217.976V222.809H212.558ZM220.637 222.968C219.921 222.968 219.305 222.799 218.788 222.461C218.271 222.123 217.873 221.657 217.594 221.064C217.316 220.47 217.177 219.792 217.177 219.03C217.177 218.255 217.319 217.57 217.604 216.977C217.893 216.38 218.294 215.915 218.808 215.58C219.325 215.242 219.928 215.073 220.617 215.073C221.154 215.073 221.638 215.172 222.069 215.371C222.5 215.57 222.853 215.848 223.128 216.206C223.403 216.564 223.574 216.982 223.64 217.459H222.467C222.377 217.111 222.178 216.803 221.87 216.534C221.565 216.263 221.154 216.127 220.637 216.127C220.18 216.127 219.779 216.246 219.434 216.485C219.093 216.72 218.826 217.053 218.634 217.484C218.445 217.912 218.35 218.414 218.35 218.99C218.35 219.58 218.443 220.094 218.629 220.532C218.817 220.969 219.083 221.309 219.424 221.551C219.769 221.793 220.173 221.914 220.637 221.914C220.942 221.914 221.219 221.861 221.467 221.755C221.716 221.649 221.926 221.496 222.099 221.297C222.271 221.098 222.394 220.86 222.467 220.581H223.64C223.574 221.032 223.41 221.438 223.148 221.799C222.889 222.157 222.546 222.442 222.119 222.654C221.694 222.863 221.201 222.968 220.637 222.968ZM226.528 218.215V222.809H225.355V212.627H226.528V216.365H226.628C226.807 215.971 227.075 215.658 227.433 215.426C227.795 215.19 228.275 215.073 228.875 215.073C229.395 215.073 229.851 215.177 230.242 215.386C230.633 215.592 230.937 215.908 231.152 216.336C231.371 216.76 231.48 217.3 231.48 217.956V222.809H230.307V218.036C230.307 217.429 230.149 216.96 229.835 216.629C229.523 216.294 229.09 216.127 228.537 216.127C228.152 216.127 227.808 216.208 227.503 216.37C227.201 216.533 226.963 216.77 226.787 217.081C226.615 217.393 226.528 217.771 226.528 218.215ZM233.627 222.809V215.172H234.8V222.809H233.627ZM234.223 213.9C233.994 213.9 233.797 213.822 233.632 213.666C233.469 213.51 233.388 213.323 233.388 213.104C233.388 212.885 233.469 212.698 233.632 212.542C233.797 212.386 233.994 212.309 234.223 212.309C234.452 212.309 234.647 212.386 234.81 212.542C234.976 212.698 235.058 212.885 235.058 213.104C235.058 213.323 234.976 213.51 234.81 213.666C234.647 213.822 234.452 213.9 234.223 213.9ZM238.122 218.215V222.809H236.949V215.172H238.082V216.365H238.182C238.361 215.978 238.633 215.666 238.997 215.431C239.362 215.192 239.832 215.073 240.409 215.073C240.926 215.073 241.379 215.179 241.766 215.391C242.154 215.6 242.456 215.918 242.671 216.346C242.887 216.77 242.994 217.307 242.994 217.956V222.809H241.821V218.036C241.821 217.436 241.665 216.969 241.354 216.634C241.042 216.296 240.615 216.127 240.071 216.127C239.696 216.127 239.362 216.208 239.067 216.37C238.775 216.533 238.545 216.77 238.376 217.081C238.207 217.393 238.122 217.771 238.122 218.215ZM248.221 225.831C247.654 225.831 247.167 225.758 246.759 225.613C246.351 225.47 246.012 225.281 245.74 225.046C245.471 224.814 245.258 224.565 245.099 224.3L246.033 223.644C246.139 223.783 246.273 223.942 246.436 224.121C246.598 224.303 246.82 224.461 247.102 224.593C247.387 224.729 247.76 224.797 248.221 224.797C248.837 224.797 249.346 224.648 249.747 224.35C250.148 224.051 250.349 223.584 250.349 222.948V221.397H250.249C250.163 221.536 250.04 221.708 249.881 221.914C249.725 222.116 249.5 222.297 249.205 222.456C248.913 222.611 248.519 222.689 248.022 222.689C247.405 222.689 246.852 222.543 246.361 222.252C245.874 221.96 245.488 221.536 245.203 220.979C244.921 220.422 244.78 219.746 244.78 218.951C244.78 218.168 244.918 217.487 245.193 216.907C245.468 216.324 245.851 215.873 246.341 215.555C246.832 215.234 247.399 215.073 248.042 215.073C248.539 215.073 248.933 215.156 249.225 215.321C249.52 215.484 249.745 215.669 249.901 215.878C250.06 216.084 250.183 216.253 250.269 216.385H250.388V215.172H251.522V223.027C251.522 223.684 251.373 224.217 251.074 224.628C250.779 225.042 250.382 225.346 249.881 225.538C249.384 225.734 248.831 225.831 248.221 225.831ZM248.181 221.635C248.652 221.635 249.049 221.528 249.374 221.312C249.699 221.097 249.946 220.787 250.115 220.382C250.284 219.978 250.368 219.494 250.368 218.931C250.368 218.381 250.286 217.895 250.12 217.474C249.954 217.053 249.709 216.723 249.384 216.485C249.059 216.246 248.658 216.127 248.181 216.127C247.684 216.127 247.269 216.253 246.938 216.505C246.61 216.757 246.363 217.095 246.197 217.519C246.035 217.943 245.954 218.414 245.954 218.931C245.954 219.461 246.037 219.93 246.202 220.338C246.371 220.742 246.62 221.06 246.948 221.292C247.279 221.521 247.69 221.635 248.181 221.635Z" fill="#757575"/>
<defs>
<filter id="filter0_d_149_9077" x="23.3516" y="18.7441" width="146.518" height="148.319" filterUnits="userSpaceOnUse" color-interpolation-filters="sRGB">
<feFlood flood-opacity="0" result="BackgroundImageFix"/>
<feColorMatrix in="SourceAlpha" type="matrix" values="0 0 0 0 0 0 0 0 0 0 0 0 0 0 0 0 0 0 127 0" result="hardAlpha"/>
<feOffset dy="11"/>
<feGaussianBlur stdDeviation="11"/>
<feColorMatrix type="matrix" values="0 0 0 0 0.397708 0 0 0 0 0.47749 0 0 0 0 0.575 0 0 0 0.27 0"/>
<feBlend mode="normal" in2="BackgroundImageFix" result="effect1_dropShadow_149_9077"/>
<feBlend mode="normal" in="SourceGraphic" in2="effect1_dropShadow_149_9077" result="shape"/>
</filter>
<filter id="filter1_d_149_9077" x="76.0537" y="13.4629" width="116.512" height="136.957" filterUnits="userSpaceOnUse" color-interpolation-filters="sRGB">
<feFlood flood-opacity="0" result="BackgroundImageFix"/>
<feColorMatrix in="SourceAlpha" type="matrix" values="0 0 0 0 0 0 0 0 0 0 0 0 0 0 0 0 0 0 127 0" result="hardAlpha"/>
<feOffset dy="11"/>
<feGaussianBlur stdDeviation="11"/>
<feColorMatrix type="matrix" values="0 0 0 0 0.397708 0 0 0 0 0.47749 0 0 0 0 0.575 0 0 0 0.27 0"/>
<feBlend mode="normal" in2="BackgroundImageFix" result="effect1_dropShadow_149_9077"/>
<feBlend mode="normal" in="SourceGraphic" in2="effect1_dropShadow_149_9077" result="shape"/>
</filter>
<filter id="filter2_d_149_9077" x="95.2207" y="16.1436" width="137.019" height="156.071" filterUnits="userSpaceOnUse" color-interpolation-filters="sRGB">
<feFlood flood-opacity="0" result="BackgroundImageFix"/>
<feColorMatrix in="SourceAlpha" type="matrix" values="0 0 0 0 0 0 0 0 0 0 0 0 0 0 0 0 0 0 127 0" result="hardAlpha"/>
<feOffset dy="11"/>
<feGaussianBlur stdDeviation="11"/>
<feColorMatrix type="matrix" values="0 0 0 0 0.397708 0 0 0 0 0.47749 0 0 0 0 0.575 0 0 0 0.27 0"/>
<feBlend mode="normal" in2="BackgroundImageFix" result="effect1_dropShadow_149_9077"/>
<feBlend mode="normal" in="SourceGraphic" in2="effect1_dropShadow_149_9077" result="shape"/>
</filter>
<linearGradient id="paint0_linear_149_9077" x1="87.374" y1="27.7967" x2="106.44" y2="131.407" gradientUnits="userSpaceOnUse">
<stop stop-color="#FDFEFF"/>
<stop offset="0.9964" stop-color="#ECF0F5"/>
</linearGradient>
<linearGradient id="paint1_linear_149_9077" x1="147.299" y1="21.6801" x2="120.34" y2="123.521" gradientUnits="userSpaceOnUse">
<stop stop-color="#FDFEFF"/>
<stop offset="0.9964" stop-color="#ECF0F5"/>
</linearGradient>
<linearGradient id="paint2_linear_149_9077" x1="179.94" y1="30.6938" x2="152.76" y2="133.371" gradientUnits="userSpaceOnUse">
<stop stop-color="#FDFEFF"/>
<stop offset="0.9964" stop-color="#ECF0F5"/>
</linearGradient>
</defs>
</svg>
