<svg width="21" height="22" viewBox="0 0 21 22" fill="none" xmlns="http://www.w3.org/2000/svg">
<path d="M10.333 0.828125C4.71387 0.828125 0.161133 5.38086 0.161133 11C0.161133 16.6191 4.71387 21.1719 10.333 21.1719C15.9521 21.1719 20.5049 16.6191 20.5049 11C20.5049 5.38086 15.9521 0.828125 10.333 0.828125ZM10.333 19.8594C5.46445 19.8594 1.47363 15.9178 1.47363 11C1.47363 6.13145 5.41523 2.14062 10.333 2.14062C15.2016 2.14062 19.1924 6.08223 19.1924 11C19.1924 15.8686 15.2508 19.8594 10.333 19.8594ZM14.2213 8.15762L11.3789 11L14.2213 13.8424C14.4141 14.0352 14.4141 14.3469 14.2213 14.5396L13.8727 14.8883C13.6799 15.0811 13.3682 15.0811 13.1754 14.8883L10.333 12.0459L7.49062 14.8883C7.29785 15.0811 6.98613 15.0811 6.79336 14.8883L6.44473 14.5396C6.25195 14.3469 6.25195 14.0352 6.44473 13.8424L9.28711 11L6.44473 8.15762C6.25195 7.96484 6.25195 7.65312 6.44473 7.46035L6.79336 7.11172C6.98613 6.91894 7.29785 6.91894 7.49062 7.11172L10.333 9.9541L13.1754 7.11172C13.3682 6.91894 13.6799 6.91894 13.8727 7.11172L14.2213 7.46035C14.41 7.65312 14.41 7.96484 14.2213 8.15762Z" fill="#9E9E9E"/>
</svg>
